<?xml version="1.0" standalone="no"?>
<!DOCTYPE svg PUBLIC "-//W3C//DTD SVG 20010904//EN"
 "http://www.w3.org/TR/2001/REC-SVG-20010904/DTD/svg10.dtd">
<svg version="1.0" xmlns="http://www.w3.org/2000/svg"
 width="600.000000pt" height="600.000000pt" viewBox="0 0 600.000000 600.000000"
 preserveAspectRatio="xMidYMid meet">

<g transform="translate(0.000000,600.000000) scale(0.100000,-0.100000)"
fill="#000000" stroke="none">
<path d="M3100 5122 c-22 -18 -24 -29 -30 -134 -5 -88 -11 -123 -26 -149 -20
-33 -22 -34 -107 -43 -48 -5 -90 -6 -94 -3 -3 3 2 44 12 91 19 99 15 123 -27
141 -62 26 -93 -3 -115 -107 -18 -90 -47 -158 -67 -158 -8 0 -51 -19 -95 -41
-99 -51 -179 -131 -222 -223 l-30 -64 -57 1 c-38 0 -75 -8 -110 -23 -46 -20
-62 -22 -125 -16 -206 20 -196 20 -203 2 -4 -9 -1 -45 6 -78 19 -87 44 -109
165 -148 114 -37 145 -59 145 -104 0 -93 -71 -730 -85 -763 -20 -47 -104 -191
-116 -198 -4 -3 -53 15 -107 40 -55 25 -113 45 -130 45 -23 0 -50 -16 -105
-60 -100 -80 -105 -94 -72 -206 20 -67 29 -124 35 -229 4 -77 11 -149 15 -160
5 -11 53 -86 107 -167 99 -149 119 -167 147 -134 31 37 25 81 -25 187 -48 101
-49 106 -48 194 1 87 23 195 46 223 6 6 17 12 24 12 8 0 68 -45 134 -100 67
-55 135 -106 153 -113 17 -8 219 -69 447 -137 228 -67 476 -140 550 -162 74
-22 155 -46 180 -52 l45 -12 35 -140 c39 -157 41 -161 187 -345 l101 -126 179
-119 c99 -65 189 -132 201 -149 11 -16 39 -99 61 -182 22 -84 48 -165 59 -180
29 -40 168 -173 181 -173 14 0 31 42 31 77 0 25 -38 103 -50 103 -17 0 -52
109 -74 238 -14 78 -32 155 -40 170 -8 15 -64 82 -125 150 -60 68 -115 137
-120 155 -7 21 -8 71 -2 148 l9 116 121 219 121 219 62 30 c137 66 223 167
252 295 18 79 19 90 7 90 -4 0 -48 -23 -97 -52 -49 -28 -131 -71 -182 -95
l-93 -44 -102 84 c-140 115 -191 149 -272 182 -38 15 -95 38 -125 51 -30 13
-156 64 -280 115 -124 50 -244 101 -267 114 -62 34 -361 283 -377 313 -21 40
-126 478 -132 547 -2 33 -6 81 -9 106 l-4 46 70 10 c107 17 143 49 158 140 8
54 1 87 -22 96 -7 3 -70 -15 -138 -39 -174 -61 -214 -58 -166 14 55 83 145
145 248 170 25 6 117 16 205 22 316 21 418 51 536 159 91 83 104 134 46 175
-37 26 -55 19 -133 -53 -65 -61 -156 -114 -170 -99 -2 2 1 35 6 73 14 86 8
190 -12 210 -25 26 -72 29 -99 7z"/>
</g>
</svg>
